<?xml version="1.0" standalone="no"?>
<!DOCTYPE svg PUBLIC "-//W3C//DTD SVG 20010904//EN"
 "http://www.w3.org/TR/2001/REC-SVG-20010904/DTD/svg10.dtd">
<svg version="1.0" xmlns="http://www.w3.org/2000/svg"
 width="522.000000pt" height="522.000000pt" viewBox="0 0 522.000000 522.000000"
 preserveAspectRatio="xMidYMid meet">
<metadata>
Created by potrace 1.11, written by Peter Selinger 2001-2013
</metadata>
<g transform="translate(0.000000,522.000000) scale(0.100000,-0.100000)"
fill="#000000" stroke="none">
<path d="M2429 5216 c-2 -2 -37 -6 -77 -10 -277 -23 -596 -111 -867 -241 -206
-98 -397 -224 -579 -380 -402 -343 -698 -822 -826 -1335 -60 -244 -79 -407
-75 -675 2 -189 8 -256 41 -455 12 -78 65 -272 102 -375 60 -166 62 -170 135
-315 329 -645 909 -1127 1597 -1325 112 -32 227 -59 307 -71 21 -3 49 -7 63
-10 150 -26 528 -26 720 1 374 51 754 194 1060 398 156 104 153 101 255 187
369 308 648 719 799 1174 48 143 101 366 111 462 3 33 9 84 14 113 8 53 7 483
-2 531 -8 46 -20 125 -22 145 -6 66 -64 301 -103 415 -279 815 -941 1442
-1772 1675 -117 33 -213 52 -375 75 -72 11 -498 24 -506 16z"/>
</g>
</svg>
